<svg xmlns="http://www.w3.org/2000/svg" xmlns:xlink="http://www.w3.org/1999/xlink" width="1019" height="2192" contentScriptType="application/ecmascript" contentStyleType="text/css" style="width:1019px;height:2192px" preserveAspectRatio="none" version="1.1" viewBox="0 0 1019 2192" zoomAndPan="magnify"><defs><filter id="fts3tfjfg12j7" width="300%" height="300%" x="-1" y="-1"><feGaussianBlur result="blurOut" stdDeviation="2"/><feColorMatrix in="blurOut" result="blurOut2" type="matrix" values="0 0 0 0 0 0 0 0 0 0 0 0 0 0 0 0 0 0 .4 0"/><feOffset dx="4" dy="4" in="blurOut2" result="blurOut3"/><feBlend in="SourceGraphic" in2="blurOut3" mode="normal"/></filter></defs><g><text x="160.5" y="28.708" fill="#000" font-family="sans-serif" font-size="18" lengthAdjust="spacing" textLength="691">Scenario: A Participant Is Consolidating 2 Coins (Alice1, Alice2) Into 1 (Bob)</text><rect style="stroke:#a80036;stroke-width:1" width="10" height="29.133" x="213" y="197.469" fill="#FFF" filter="url(#fts3tfjfg12j7)"/><rect style="stroke:#a80036;stroke-width:1" width="10" height="234.727" x="213" y="255.734" fill="#FFF" filter="url(#fts3tfjfg12j7)"/><rect style="stroke:#a80036;stroke-width:1" width="10" height="143.93" x="213" y="547.594" fill="#FFF" filter="url(#fts3tfjfg12j7)"/><rect style="stroke:#a80036;stroke-width:1" width="10" height="234.727" x="213" y="720.656" fill="#FFF" filter="url(#fts3tfjfg12j7)"/><rect style="stroke:#a80036;stroke-width:1" width="10" height="128.797" x="213" y="1027.648" fill="#FFF" filter="url(#fts3tfjfg12j7)"/><rect style="stroke:#a80036;stroke-width:1" width="10" height="128.797" x="213" y="1185.578" fill="#FFF" filter="url(#fts3tfjfg12j7)"/><rect style="stroke:#a80036;stroke-width:1" width="10" height="128.797" x="213" y="1386.641" fill="#FFF" filter="url(#fts3tfjfg12j7)"/><rect style="stroke:#a80036;stroke-width:1" width="10" height="29.133" x="213" y="1587.703" fill="#FFF" filter="url(#fts3tfjfg12j7)"/><rect style="stroke:#a80036;stroke-width:1" width="10" height="128.797" x="213" y="1645.969" fill="#FFF" filter="url(#fts3tfjfg12j7)"/><rect style="stroke:#a80036;stroke-width:1" width="10" height="128.797" x="213" y="1803.898" fill="#FFF" filter="url(#fts3tfjfg12j7)"/><rect style="stroke:#a80036;stroke-width:1" width="10" height="29.133" x="213" y="2077.258" fill="#FFF" filter="url(#fts3tfjfg12j7)"/><line style="stroke:#a80036;stroke-width:1" x1="46" x2="46" y1="123.203" y2="498.461"/><line style="stroke:#a80036;stroke-width:1;stroke-dasharray:1,4" x1="46" x2="46" y1="498.461" y2="526.461"/><line style="stroke:#a80036;stroke-width:1" x1="46" x2="46" y1="526.461" y2="2124.391"/><line style="stroke:#a80036;stroke-width:1" x1="218" x2="218" y1="123.203" y2="498.461"/><line style="stroke:#a80036;stroke-width:1;stroke-dasharray:1,4" x1="218" x2="218" y1="498.461" y2="526.461"/><line style="stroke:#a80036;stroke-width:1" x1="218" x2="218" y1="526.461" y2="2124.391"/><line style="stroke:#a80036;stroke-width:1" x1="765" x2="765" y1="123.203" y2="498.461"/><line style="stroke:#a80036;stroke-width:1;stroke-dasharray:1,4" x1="765" x2="765" y1="498.461" y2="526.461"/><line style="stroke:#a80036;stroke-width:1" x1="765" x2="765" y1="526.461" y2="2124.391"/><line style="stroke:#a80036;stroke-width:1" x1="836" x2="836" y1="123.203" y2="498.461"/><line style="stroke:#a80036;stroke-width:1;stroke-dasharray:1,4" x1="836" x2="836" y1="498.461" y2="526.461"/><line style="stroke:#a80036;stroke-width:1" x1="836" x2="836" y1="526.461" y2="2124.391"/><line style="stroke:#a80036;stroke-width:1" x1="900" x2="900" y1="123.203" y2="498.461"/><line style="stroke:#a80036;stroke-width:1;stroke-dasharray:1,4" x1="900" x2="900" y1="498.461" y2="526.461"/><line style="stroke:#a80036;stroke-width:1" x1="900" x2="900" y1="526.461" y2="2124.391"/><line style="stroke:#a80036;stroke-width:1" x1="970" x2="970" y1="2029.977" y2="2124.391"/><rect style="stroke:#a80036;stroke-width:1.5" width="74" height="30.297" x="9" y="83.906" fill="#FEFECE" filter="url(#fts3tfjfg12j7)"/><rect style="stroke:#a80036;stroke-width:1.5" width="74" height="30.297" x="5" y="87.906" fill="#FEFECE" filter="url(#fts3tfjfg12j7)"/><text x="12" y="107.901" fill="#000" font-family="sans-serif" font-size="14" lengthAdjust="spacing" textLength="60">Satoshis</text><rect style="stroke:#a80036;stroke-width:1.5" width="74" height="30.297" x="9" y="2123.391" fill="#FEFECE" filter="url(#fts3tfjfg12j7)"/><rect style="stroke:#a80036;stroke-width:1.5" width="74" height="30.297" x="5" y="2127.391" fill="#FEFECE" filter="url(#fts3tfjfg12j7)"/><text x="12" y="2147.386" fill="#000" font-family="sans-serif" font-size="14" lengthAdjust="spacing" textLength="60">Satoshis</text><rect style="stroke:#a80036;stroke-width:1.5" width="100" height="30.297" x="166" y="87.906" fill="#FEFECE" filter="url(#fts3tfjfg12j7)"/><text x="173" y="107.901" fill="#000" font-family="sans-serif" font-size="14" lengthAdjust="spacing" textLength="86">Coordinator</text><rect style="stroke:#a80036;stroke-width:1.5" width="100" height="30.297" x="166" y="2123.391" fill="#FEFECE" filter="url(#fts3tfjfg12j7)"/><text x="173" y="2143.386" fill="#000" font-family="sans-serif" font-size="14" lengthAdjust="spacing" textLength="86">Coordinator</text><rect style="stroke:#a80036;stroke-width:1.5" width="58" height="30.297" x="734" y="87.906" fill="#FEFECE" filter="url(#fts3tfjfg12j7)"/><text x="741" y="107.901" fill="#000" font-family="sans-serif" font-size="14" lengthAdjust="spacing" textLength="44">Alice1</text><rect style="stroke:#a80036;stroke-width:1.5" width="58" height="30.297" x="734" y="2123.391" fill="#FEFECE" filter="url(#fts3tfjfg12j7)"/><text x="741" y="2143.386" fill="#000" font-family="sans-serif" font-size="14" lengthAdjust="spacing" textLength="44">Alice1</text><rect style="stroke:#a80036;stroke-width:1.5" width="57" height="30.297" x="806" y="87.906" fill="#FEFECE" filter="url(#fts3tfjfg12j7)"/><text x="813" y="107.901" fill="#000" font-family="sans-serif" font-size="14" lengthAdjust="spacing" textLength="43">Alice2</text><rect style="stroke:#a80036;stroke-width:1.5" width="57" height="30.297" x="806" y="2123.391" fill="#FEFECE" filter="url(#fts3tfjfg12j7)"/><text x="813" y="2143.386" fill="#000" font-family="sans-serif" font-size="14" lengthAdjust="spacing" textLength="43">Alice2</text><rect style="stroke:#a80036;stroke-width:1.5" width="43" height="30.297" x="877" y="87.906" fill="#FEFECE" filter="url(#fts3tfjfg12j7)"/><text x="884" y="107.901" fill="#000" font-family="sans-serif" font-size="14" lengthAdjust="spacing" textLength="29">Bob</text><rect style="stroke:#a80036;stroke-width:1.5" width="43" height="30.297" x="877" y="2123.391" fill="#FEFECE" filter="url(#fts3tfjfg12j7)"/><text x="884" y="2143.386" fill="#000" font-family="sans-serif" font-size="14" lengthAdjust="spacing" textLength="29">Bob</text><text x="934" y="2136.386" fill="#000" font-family="sans-serif" font-size="14" lengthAdjust="spacing" textLength="67">Mempool</text><path fill="#FEFECE" d="M952.5,2149.6875 C952.5,2139.6875 970.5,2139.6875 970.5,2139.6875 C970.5,2139.6875 988.5,2139.6875 988.5,2149.6875 L988.5,2175.6875 C988.5,2185.6875 970.5,2185.6875 970.5,2185.6875 C970.5,2185.6875 952.5,2185.6875 952.5,2175.6875 L952.5,2149.6875" filter="url(#fts3tfjfg12j7)" style="stroke:#000;stroke-width:1.5"/><path fill="none" d="M952.5,2149.6875 C952.5,2159.6875 970.5,2159.6875 970.5,2159.6875 C970.5,2159.6875 988.5,2159.6875 988.5,2149.6875" style="stroke:#000;stroke-width:1.5"/><rect style="stroke:#a80036;stroke-width:1" width="10" height="29.133" x="213" y="197.469" fill="#FFF" filter="url(#fts3tfjfg12j7)"/><rect style="stroke:#a80036;stroke-width:1" width="10" height="234.727" x="213" y="255.734" fill="#FFF" filter="url(#fts3tfjfg12j7)"/><rect style="stroke:#a80036;stroke-width:1" width="10" height="143.93" x="213" y="547.594" fill="#FFF" filter="url(#fts3tfjfg12j7)"/><rect style="stroke:#a80036;stroke-width:1" width="10" height="234.727" x="213" y="720.656" fill="#FFF" filter="url(#fts3tfjfg12j7)"/><rect style="stroke:#a80036;stroke-width:1" width="10" height="128.797" x="213" y="1027.648" fill="#FFF" filter="url(#fts3tfjfg12j7)"/><rect style="stroke:#a80036;stroke-width:1" width="10" height="128.797" x="213" y="1185.578" fill="#FFF" filter="url(#fts3tfjfg12j7)"/><rect style="stroke:#a80036;stroke-width:1" width="10" height="128.797" x="213" y="1386.641" fill="#FFF" filter="url(#fts3tfjfg12j7)"/><rect style="stroke:#a80036;stroke-width:1" width="10" height="29.133" x="213" y="1587.703" fill="#FFF" filter="url(#fts3tfjfg12j7)"/><rect style="stroke:#a80036;stroke-width:1" width="10" height="128.797" x="213" y="1645.969" fill="#FFF" filter="url(#fts3tfjfg12j7)"/><rect style="stroke:#a80036;stroke-width:1" width="10" height="128.797" x="213" y="1803.898" fill="#FFF" filter="url(#fts3tfjfg12j7)"/><rect style="stroke:#a80036;stroke-width:1" width="10" height="29.133" x="213" y="2077.258" fill="#FFF" filter="url(#fts3tfjfg12j7)"/><rect style="stroke:#eee;stroke-width:1" width="1012" height="3" x="0" y="153.769" fill="#EEE" filter="url(#fts3tfjfg12j7)"/><line style="stroke:#000;stroke-width:1" x1="0" x2="1012" y1="153.769" y2="153.769"/><line style="stroke:#000;stroke-width:1" x1="0" x2="1012" y1="156.769" y2="156.769"/><rect style="stroke:#000;stroke-width:2" width="159" height="23.133" x="426.5" y="143.203" fill="#EEE" filter="url(#fts3tfjfg12j7)"/><text x="432.5" y="159.27" fill="#000" font-family="sans-serif" font-size="13" font-weight="bold" lengthAdjust="spacing" textLength="140">Input Registration</text><polygon fill="#A80036" points="201 193.469 211 197.469 201 201.469 205 197.469" style="stroke:#a80036;stroke-width:1"/><line style="stroke:#a80036;stroke-width:1" x1="46" x2="207" y1="197.469" y2="197.469"/><text x="53" y="192.403" fill="#000" font-family="sans-serif" font-size="13" lengthAdjust="spacing" textLength="148">GET coordinator-status</text><polygon fill="#A80036" points="57 222.602 47 226.602 57 230.602 53 226.602" style="stroke:#a80036;stroke-width:1"/><line style="stroke:#a80036;stroke-width:1;stroke-dasharray:2,2" x1="51" x2="217" y1="226.602" y2="226.602"/><text x="63" y="221.536" fill="#000" font-family="sans-serif" font-size="13" lengthAdjust="spacing" textLength="107">RoundStatuses[]</text><polygon fill="#A80036" points="234 251.734 224 255.734 234 259.734 230 255.734" style="stroke:#a80036;stroke-width:1"/><line style="stroke:#a80036;stroke-width:1" x1="228" x2="764" y1="255.734" y2="255.734"/><text x="240" y="250.668" fill="#000" font-family="sans-serif" font-size="13" lengthAdjust="spacing" textLength="497">POST inputs-registration: RoundId, (Input, RoundParamSig)[], ZeroCredReqs[]</text><path fill="#FBFB77" d="M228,268.7344 L228,459.7344 L417,459.7344 L417,278.7344 L407,268.7344 L228,268.7344" filter="url(#fts3tfjfg12j7)" style="stroke:#a80036;stroke-width:1"/><path fill="#FBFB77" d="M407,268.7344 L407,278.7344 L417,278.7344 L407,268.7344" style="stroke:#a80036;stroke-width:1"/><text x="234" y="285.801" fill="#000" font-family="sans-serif" font-size="13" lengthAdjust="spacing" textLength="100">IsRoundFound()</text><text x="234" y="300.934" fill="#000" font-family="sans-serif" font-size="13" lengthAdjust="spacing" textLength="168">IsInputRegistrationPhase()</text><text x="234" y="316.067" fill="#000" font-family="sans-serif" font-size="13" lengthAdjust="spacing" textLength="78">AllUnspent()</text><text x="234" y="331.2" fill="#000" font-family="sans-serif" font-size="13" lengthAdjust="spacing" textLength="92">AllConfirmed()</text><text x="234" y="346.332" fill="#000" font-family="sans-serif" font-size="13" lengthAdjust="spacing" textLength="69">AllMature()</text><text x="234" y="361.465" fill="#000" font-family="sans-serif" font-size="13" lengthAdjust="spacing" textLength="119">AllStandardScript()</text><text x="234" y="376.598" fill="#000" font-family="sans-serif" font-size="13" lengthAdjust="spacing" textLength="106">AllNotMalleable()</text><text x="234" y="391.731" fill="#000" font-family="sans-serif" font-size="13" lengthAdjust="spacing" textLength="158">CheckRoundParamSigs()</text><text x="234" y="406.864" fill="#000" font-family="sans-serif" font-size="13" lengthAdjust="spacing" textLength="164">AllAllowedIfBlameRound()</text><text x="234" y="421.997" fill="#000" font-family="sans-serif" font-size="13" lengthAdjust="spacing" textLength="95">AllNotBanned()</text><text x="234" y="437.129" fill="#000" font-family="sans-serif" font-size="13" lengthAdjust="spacing" textLength="156">UpdateIfDuplicateInput()</text><text x="234" y="452.262" fill="#000" font-family="sans-serif" font-size="13" lengthAdjust="spacing" textLength="117">SetAliceDeadline()</text><polygon fill="#A80036" points="753 486.461 763 490.461 753 494.461 757 490.461" style="stroke:#a80036;stroke-width:1"/><line style="stroke:#a80036;stroke-width:1;stroke-dasharray:2,2" x1="218" x2="759" y1="490.461" y2="490.461"/><text x="225" y="485.395" fill="#000" font-family="sans-serif" font-size="13" lengthAdjust="spacing" textLength="127">AliceId, ZeroCreds[]</text><polygon fill="#A80036" points="234 543.594 224 547.594 234 551.594 230 547.594" style="stroke:#a80036;stroke-width:1"/><line style="stroke:#a80036;stroke-width:1" x1="228" x2="764" y1="547.594" y2="547.594"/><text x="240" y="542.528" fill="#000" font-family="sans-serif" font-size="13" lengthAdjust="spacing" textLength="523">POST connection-confirmation: RoundId, AliceId, RealCredReqs[], ZeroCredReqs[]</text><path fill="#FBFB77" d="M228,560.5938 L228,660.5938 L587,660.5938 L587,570.5938 L577,560.5938 L228,560.5938" filter="url(#fts3tfjfg12j7)" style="stroke:#a80036;stroke-width:1"/><path fill="#FBFB77" d="M577,560.5938 L577,570.5938 L587,570.5938 L577,560.5938" style="stroke:#a80036;stroke-width:1"/><text x="234" y="577.661" fill="#000" font-family="sans-serif" font-size="13" lengthAdjust="spacing" textLength="100">IsRoundFound()</text><text x="234" y="592.793" fill="#000" font-family="sans-serif" font-size="13" lengthAdjust="spacing" textLength="338">IsInputRegistrationOrConnectionConfirmationPhase()</text><text x="234" y="607.926" fill="#000" font-family="sans-serif" font-size="13" lengthAdjust="spacing" textLength="89">IsAliceFound()</text><text x="234" y="623.059" fill="#000" font-family="sans-serif" font-size="13" lengthAdjust="spacing" textLength="184">EnsureUniqueSerialNumber()</text><text x="234" y="638.192" fill="#000" font-family="sans-serif" font-size="13" lengthAdjust="spacing" textLength="120">CheckCredProofs()</text><text x="234" y="653.325" fill="#000" font-family="sans-serif" font-size="13" lengthAdjust="spacing" textLength="133">ResetAliceDeadline()</text><polygon fill="#A80036" points="753 687.523 763 691.523 753 695.523 757 691.523" style="stroke:#a80036;stroke-width:1"/><line style="stroke:#a80036;stroke-width:1;stroke-dasharray:2,2" x1="218" x2="759" y1="691.523" y2="691.523"/><text x="225" y="686.457" fill="#000" font-family="sans-serif" font-size="13" lengthAdjust="spacing" textLength="78">ZeroCreds[]</text><polygon fill="#A80036" points="234 716.656 224 720.656 234 724.656 230 720.656" style="stroke:#a80036;stroke-width:1"/><line style="stroke:#a80036;stroke-width:1" x1="228" x2="835.5" y1="720.656" y2="720.656"/><text x="240" y="715.59" fill="#000" font-family="sans-serif" font-size="13" lengthAdjust="spacing" textLength="497">POST inputs-registration: RoundId, (Input, RoundParamSig)[], ZeroCredReqs[]</text><path fill="#FBFB77" d="M228,733.6563 L228,924.6563 L417,924.6563 L417,743.6563 L407,733.6563 L228,733.6563" filter="url(#fts3tfjfg12j7)" style="stroke:#a80036;stroke-width:1"/><path fill="#FBFB77" d="M407,733.6563 L407,743.6563 L417,743.6563 L407,733.6563" style="stroke:#a80036;stroke-width:1"/><text x="234" y="750.723" fill="#000" font-family="sans-serif" font-size="13" lengthAdjust="spacing" textLength="100">IsRoundFound()</text><text x="234" y="765.856" fill="#000" font-family="sans-serif" font-size="13" lengthAdjust="spacing" textLength="168">IsInputRegistrationPhase()</text><text x="234" y="780.989" fill="#000" font-family="sans-serif" font-size="13" lengthAdjust="spacing" textLength="78">AllUnspent()</text><text x="234" y="796.122" fill="#000" font-family="sans-serif" font-size="13" lengthAdjust="spacing" textLength="92">AllConfirmed()</text><text x="234" y="811.254" fill="#000" font-family="sans-serif" font-size="13" lengthAdjust="spacing" textLength="69">AllMature()</text><text x="234" y="826.387" fill="#000" font-family="sans-serif" font-size="13" lengthAdjust="spacing" textLength="119">AllStandardScript()</text><text x="234" y="841.52" fill="#000" font-family="sans-serif" font-size="13" lengthAdjust="spacing" textLength="106">AllNotMalleable()</text><text x="234" y="856.653" fill="#000" font-family="sans-serif" font-size="13" lengthAdjust="spacing" textLength="158">CheckRoundParamSigs()</text><text x="234" y="871.786" fill="#000" font-family="sans-serif" font-size="13" lengthAdjust="spacing" textLength="164">AllAllowedIfBlameRound()</text><text x="234" y="886.918" fill="#000" font-family="sans-serif" font-size="13" lengthAdjust="spacing" textLength="95">AllNotBanned()</text><text x="234" y="902.051" fill="#000" font-family="sans-serif" font-size="13" lengthAdjust="spacing" textLength="156">UpdateIfDuplicateInput()</text><text x="234" y="917.184" fill="#000" font-family="sans-serif" font-size="13" lengthAdjust="spacing" textLength="117">SetAliceDeadline()</text><polygon fill="#A80036" points="824.5 951.383 834.5 955.383 824.5 959.383 828.5 955.383" style="stroke:#a80036;stroke-width:1"/><line style="stroke:#a80036;stroke-width:1;stroke-dasharray:2,2" x1="218" x2="830.5" y1="955.383" y2="955.383"/><text x="225" y="950.317" fill="#000" font-family="sans-serif" font-size="13" lengthAdjust="spacing" textLength="127">AliceId, ZeroCreds[]</text><rect style="stroke:#eee;stroke-width:1" width="1012" height="3" x="0" y="983.949" fill="#EEE" filter="url(#fts3tfjfg12j7)"/><line style="stroke:#000;stroke-width:1" x1="0" x2="1012" y1="983.949" y2="983.949"/><line style="stroke:#000;stroke-width:1" x1="0" x2="1012" y1="986.949" y2="986.949"/><rect style="stroke:#000;stroke-width:2" width="211" height="23.133" x="400.5" y="973.383" fill="#EEE" filter="url(#fts3tfjfg12j7)"/><text x="406.5" y="989.45" fill="#000" font-family="sans-serif" font-size="13" font-weight="bold" lengthAdjust="spacing" textLength="192">Connection Confirmation</text><polygon fill="#A80036" points="234 1023.648 224 1027.648 234 1031.648 230 1027.648" style="stroke:#a80036;stroke-width:1"/><line style="stroke:#a80036;stroke-width:1" x1="228" x2="764" y1="1027.648" y2="1027.648"/><text x="240" y="1022.582" fill="#000" font-family="sans-serif" font-size="13" lengthAdjust="spacing" textLength="523">POST connection-confirmation: RoundId, AliceId, RealCredReqs[], ZeroCredReqs[]</text><path fill="#FBFB77" d="M228,1040.6484 L228,1125.6484 L587,1125.6484 L587,1050.6484 L577,1040.6484 L228,1040.6484" filter="url(#fts3tfjfg12j7)" style="stroke:#a80036;stroke-width:1"/><path fill="#FBFB77" d="M577,1040.6484 L577,1050.6484 L587,1050.6484 L577,1040.6484" style="stroke:#a80036;stroke-width:1"/><text x="234" y="1057.715" fill="#000" font-family="sans-serif" font-size="13" lengthAdjust="spacing" textLength="100">IsRoundFound()</text><text x="234" y="1072.848" fill="#000" font-family="sans-serif" font-size="13" lengthAdjust="spacing" textLength="338">IsInputRegistrationOrConnectionConfirmationPhase()</text><text x="234" y="1087.981" fill="#000" font-family="sans-serif" font-size="13" lengthAdjust="spacing" textLength="89">IsAliceFound()</text><text x="234" y="1103.114" fill="#000" font-family="sans-serif" font-size="13" lengthAdjust="spacing" textLength="184">EnsureUniqueSerialNumber()</text><text x="234" y="1118.247" fill="#000" font-family="sans-serif" font-size="13" lengthAdjust="spacing" textLength="120">CheckCredProofs()</text><polygon fill="#A80036" points="753 1152.445 763 1156.445 753 1160.445 757 1156.445" style="stroke:#a80036;stroke-width:1"/><line style="stroke:#a80036;stroke-width:1;stroke-dasharray:2,2" x1="218" x2="759" y1="1156.445" y2="1156.445"/><text x="225" y="1151.379" fill="#000" font-family="sans-serif" font-size="13" lengthAdjust="spacing" textLength="161">RealCreds[], ZeroCreds[]</text><polygon fill="#A80036" points="234 1181.578 224 1185.578 234 1189.578 230 1185.578" style="stroke:#a80036;stroke-width:1"/><line style="stroke:#a80036;stroke-width:1" x1="228" x2="835.5" y1="1185.578" y2="1185.578"/><text x="240" y="1180.512" fill="#000" font-family="sans-serif" font-size="13" lengthAdjust="spacing" textLength="523">POST connection-confirmation: RoundId, AliceId, RealCredReqs[], ZeroCredReqs[]</text><path fill="#FBFB77" d="M228,1198.5781 L228,1283.5781 L587,1283.5781 L587,1208.5781 L577,1198.5781 L228,1198.5781" filter="url(#fts3tfjfg12j7)" style="stroke:#a80036;stroke-width:1"/><path fill="#FBFB77" d="M577,1198.5781 L577,1208.5781 L587,1208.5781 L577,1198.5781" style="stroke:#a80036;stroke-width:1"/><text x="234" y="1215.645" fill="#000" font-family="sans-serif" font-size="13" lengthAdjust="spacing" textLength="100">IsRoundFound()</text><text x="234" y="1230.778" fill="#000" font-family="sans-serif" font-size="13" lengthAdjust="spacing" textLength="338">IsInputRegistrationOrConnectionConfirmationPhase()</text><text x="234" y="1245.911" fill="#000" font-family="sans-serif" font-size="13" lengthAdjust="spacing" textLength="89">IsAliceFound()</text><text x="234" y="1261.043" fill="#000" font-family="sans-serif" font-size="13" lengthAdjust="spacing" textLength="184">EnsureUniqueSerialNumber()</text><text x="234" y="1276.176" fill="#000" font-family="sans-serif" font-size="13" lengthAdjust="spacing" textLength="120">CheckCredProofs()</text><polygon fill="#A80036" points="824.5 1310.375 834.5 1314.375 824.5 1318.375 828.5 1314.375" style="stroke:#a80036;stroke-width:1"/><line style="stroke:#a80036;stroke-width:1;stroke-dasharray:2,2" x1="218" x2="830.5" y1="1314.375" y2="1314.375"/><text x="225" y="1309.309" fill="#000" font-family="sans-serif" font-size="13" lengthAdjust="spacing" textLength="161">RealCreds[], ZeroCreds[]</text><rect style="stroke:#eee;stroke-width:1" width="1012" height="3" x="0" y="1342.941" fill="#EEE" filter="url(#fts3tfjfg12j7)"/><line style="stroke:#000;stroke-width:1" x1="0" x2="1012" y1="1342.941" y2="1342.941"/><line style="stroke:#000;stroke-width:1" x1="0" x2="1012" y1="1345.941" y2="1345.941"/><rect style="stroke:#000;stroke-width:2" width="173" height="23.133" x="419.5" y="1332.375" fill="#EEE" filter="url(#fts3tfjfg12j7)"/><text x="425.5" y="1348.442" fill="#000" font-family="sans-serif" font-size="13" font-weight="bold" lengthAdjust="spacing" textLength="154">Output Registration</text><polygon fill="#A80036" points="234 1382.641 224 1386.641 234 1390.641 230 1386.641" style="stroke:#a80036;stroke-width:1"/><line style="stroke:#a80036;stroke-width:1" x1="228" x2="899.5" y1="1386.641" y2="1386.641"/><text x="240" y="1381.575" fill="#000" font-family="sans-serif" font-size="13" lengthAdjust="spacing" textLength="391">POST output-registration: RoundId, Output, PresentedCreds[]</text><path fill="#FBFB77" d="M228,1399.6406 L228,1484.6406 L433,1484.6406 L433,1409.6406 L423,1399.6406 L228,1399.6406" filter="url(#fts3tfjfg12j7)" style="stroke:#a80036;stroke-width:1"/><path fill="#FBFB77" d="M423,1399.6406 L423,1409.6406 L433,1409.6406 L423,1399.6406" style="stroke:#a80036;stroke-width:1"/><text x="234" y="1416.707" fill="#000" font-family="sans-serif" font-size="13" lengthAdjust="spacing" textLength="100">IsRoundFound()</text><text x="234" y="1431.84" fill="#000" font-family="sans-serif" font-size="13" lengthAdjust="spacing" textLength="180">IsOutputRegistrationPhase()</text><text x="234" y="1446.973" fill="#000" font-family="sans-serif" font-size="13" lengthAdjust="spacing" textLength="114">IsStandardScript()</text><text x="234" y="1462.106" fill="#000" font-family="sans-serif" font-size="13" lengthAdjust="spacing" textLength="184">EnsureUniqueSerialNumber()</text><text x="234" y="1477.239" fill="#000" font-family="sans-serif" font-size="13" lengthAdjust="spacing" textLength="120">CheckCredProofs()</text><polygon fill="#A80036" points="888.5 1511.438 898.5 1515.438 888.5 1519.438 892.5 1515.438" style="stroke:#a80036;stroke-width:1"/><line style="stroke:#a80036;stroke-width:1;stroke-dasharray:2,2" x1="218" x2="894.5" y1="1515.438" y2="1515.438"/><text x="225" y="1510.372" fill="#000" font-family="sans-serif" font-size="13" lengthAdjust="spacing" textLength="175">UnsignedTransactionSecret</text><rect style="stroke:#eee;stroke-width:1" width="1012" height="3" x="0" y="1544.004" fill="#EEE" filter="url(#fts3tfjfg12j7)"/><line style="stroke:#000;stroke-width:1" x1="0" x2="1012" y1="1544.004" y2="1544.004"/><line style="stroke:#000;stroke-width:1" x1="0" x2="1012" y1="1547.004" y2="1547.004"/><rect style="stroke:#000;stroke-width:2" width="169" height="23.133" x="421.5" y="1533.438" fill="#EEE" filter="url(#fts3tfjfg12j7)"/><text x="427.5" y="1549.504" fill="#000" font-family="sans-serif" font-size="13" font-weight="bold" lengthAdjust="spacing" textLength="150">Transaction Signing</text><polygon fill="#A80036" points="201 1583.703 211 1587.703 201 1591.703 205 1587.703" style="stroke:#a80036;stroke-width:1"/><line style="stroke:#a80036;stroke-width:1" x1="46" x2="207" y1="1587.703" y2="1587.703"/><text x="53" y="1582.637" fill="#000" font-family="sans-serif" font-size="13" lengthAdjust="spacing" textLength="118">coordinator-status</text><polygon fill="#A80036" points="57 1612.836 47 1616.836 57 1620.836 53 1616.836" style="stroke:#a80036;stroke-width:1"/><line style="stroke:#a80036;stroke-width:1;stroke-dasharray:2,2" x1="51" x2="217" y1="1616.836" y2="1616.836"/><text x="63" y="1611.77" fill="#000" font-family="sans-serif" font-size="13" lengthAdjust="spacing" textLength="107">RoundStatuses[]</text><polygon fill="#A80036" points="234 1641.969 224 1645.969 234 1649.969 230 1645.969" style="stroke:#a80036;stroke-width:1"/><line style="stroke:#a80036;stroke-width:1" x1="228" x2="764" y1="1645.969" y2="1645.969"/><text x="240" y="1640.903" fill="#000" font-family="sans-serif" font-size="13" lengthAdjust="spacing" textLength="421">POST transaction-signatures: RoundId, AliceId, (Input, Signature)[]</text><path fill="#FBFB77" d="M228,1658.9688 L228,1743.9688 L429,1743.9688 L429,1668.9688 L419,1658.9688 L228,1658.9688" filter="url(#fts3tfjfg12j7)" style="stroke:#a80036;stroke-width:1"/><path fill="#FBFB77" d="M419,1658.9688 L419,1668.9688 L429,1668.9688 L419,1658.9688" style="stroke:#a80036;stroke-width:1"/><text x="234" y="1676.036" fill="#000" font-family="sans-serif" font-size="13" lengthAdjust="spacing" textLength="100">IsRoundFound()</text><text x="234" y="1691.168" fill="#000" font-family="sans-serif" font-size="13" lengthAdjust="spacing" textLength="180">IsTransactionSigningPhase()</text><text x="234" y="1706.301" fill="#000" font-family="sans-serif" font-size="13" lengthAdjust="spacing" textLength="89">IsAliceFound()</text><text x="234" y="1721.434" fill="#000" font-family="sans-serif" font-size="13" lengthAdjust="spacing" textLength="149">CheckInputSignatures()</text><text x="234" y="1736.567" fill="#000" font-family="sans-serif" font-size="13" lengthAdjust="spacing" textLength="156">UpdateIfAlreadySigned()</text><polygon fill="#A80036" points="753 1770.766 763 1774.766 753 1778.766 757 1774.766" style="stroke:#a80036;stroke-width:1"/><line style="stroke:#a80036;stroke-width:1;stroke-dasharray:2,2" x1="218" x2="759" y1="1774.766" y2="1774.766"/><text x="225" y="1769.7" fill="#000" font-family="sans-serif" font-size="13" lengthAdjust="spacing" textLength="26">ACK</text><polygon fill="#A80036" points="234 1799.898 224 1803.898 234 1807.898 230 1803.898" style="stroke:#a80036;stroke-width:1"/><line style="stroke:#a80036;stroke-width:1" x1="228" x2="835.5" y1="1803.898" y2="1803.898"/><text x="240" y="1798.832" fill="#000" font-family="sans-serif" font-size="13" lengthAdjust="spacing" textLength="421">POST transaction-signatures: RoundId, AliceId, (Input, Signature)[]</text><path fill="#FBFB77" d="M228,1816.8984 L228,1901.8984 L429,1901.8984 L429,1826.8984 L419,1816.8984 L228,1816.8984" filter="url(#fts3tfjfg12j7)" style="stroke:#a80036;stroke-width:1"/><path fill="#FBFB77" d="M419,1816.8984 L419,1826.8984 L429,1826.8984 L419,1816.8984" style="stroke:#a80036;stroke-width:1"/><text x="234" y="1833.965" fill="#000" font-family="sans-serif" font-size="13" lengthAdjust="spacing" textLength="100">IsRoundFound()</text><text x="234" y="1849.098" fill="#000" font-family="sans-serif" font-size="13" lengthAdjust="spacing" textLength="180">IsTransactionSigningPhase()</text><text x="234" y="1864.231" fill="#000" font-family="sans-serif" font-size="13" lengthAdjust="spacing" textLength="89">IsAliceFound()</text><text x="234" y="1879.364" fill="#000" font-family="sans-serif" font-size="13" lengthAdjust="spacing" textLength="149">CheckInputSignatures()</text><text x="234" y="1894.497" fill="#000" font-family="sans-serif" font-size="13" lengthAdjust="spacing" textLength="156">UpdateIfAlreadySigned()</text><polygon fill="#A80036" points="824.5 1928.695 834.5 1932.695 824.5 1936.695 828.5 1932.695" style="stroke:#a80036;stroke-width:1"/><line style="stroke:#a80036;stroke-width:1;stroke-dasharray:2,2" x1="218" x2="830.5" y1="1932.695" y2="1932.695"/><text x="225" y="1927.629" fill="#000" font-family="sans-serif" font-size="13" lengthAdjust="spacing" textLength="26">ACK</text><rect style="stroke:#eee;stroke-width:1" width="1012" height="3" x="0" y="1961.262" fill="#EEE" filter="url(#fts3tfjfg12j7)"/><line style="stroke:#000;stroke-width:1" x1="0" x2="1012" y1="1961.262" y2="1961.262"/><line style="stroke:#000;stroke-width:1" x1="0" x2="1012" y1="1964.262" y2="1964.262"/><rect style="stroke:#000;stroke-width:2" width="216" height="23.133" x="398" y="1950.695" fill="#EEE" filter="url(#fts3tfjfg12j7)"/><text x="404" y="1966.762" fill="#000" font-family="sans-serif" font-size="13" font-weight="bold" lengthAdjust="spacing" textLength="197">Transaction Broadcasting</text><polygon fill="#A80036" points="922 2000.961 932 2004.961 922 2008.961 926 2004.961" style="stroke:#a80036;stroke-width:1"/><line style="stroke:#a80036;stroke-width:1" x1="218" x2="928" y1="2004.961" y2="2004.961"/><text x="225" y="1999.895" fill="#000" font-family="sans-serif" font-size="13" lengthAdjust="spacing" textLength="118">SignedTransaction</text><text x="934" y="2042.823" fill="#000" font-family="sans-serif" font-size="14" lengthAdjust="spacing" textLength="67">Mempool</text><path fill="#FEFECE" d="M952.5,1993.8281 C952.5,1983.8281 970.5,1983.8281 970.5,1983.8281 C970.5,1983.8281 988.5,1983.8281 988.5,1993.8281 L988.5,2019.8281 C988.5,2029.8281 970.5,2029.8281 970.5,2029.8281 C970.5,2029.8281 952.5,2029.8281 952.5,2019.8281 L952.5,1993.8281" filter="url(#fts3tfjfg12j7)" style="stroke:#000;stroke-width:1.5"/><path fill="none" d="M952.5,1993.8281 C952.5,2003.8281 970.5,2003.8281 970.5,2003.8281 C970.5,2003.8281 988.5,2003.8281 988.5,1993.8281" style="stroke:#000;stroke-width:1.5"/><polygon fill="#A80036" points="201 2073.258 211 2077.258 201 2081.258 205 2077.258" style="stroke:#a80036;stroke-width:1"/><line style="stroke:#a80036;stroke-width:1" x1="46" x2="207" y1="2077.258" y2="2077.258"/><text x="53" y="2072.192" fill="#000" font-family="sans-serif" font-size="13" lengthAdjust="spacing" textLength="118">coordinator-status</text><polygon fill="#A80036" points="57 2102.391 47 2106.391 57 2110.391 53 2106.391" style="stroke:#a80036;stroke-width:1"/><line style="stroke:#a80036;stroke-width:1;stroke-dasharray:2,2" x1="51" x2="217" y1="2106.391" y2="2106.391"/><text x="63" y="2101.325" fill="#000" font-family="sans-serif" font-size="13" lengthAdjust="spacing" textLength="107">RoundStatuses[]</text></g></svg>