<svg xmlns="http://www.w3.org/2000/svg" xmlns:xlink="http://www.w3.org/1999/xlink" width="752" height="552" contentScriptType="application/ecmascript" contentStyleType="text/css" style="width:752px;height:552px" preserveAspectRatio="none" version="1.1" viewBox="0 0 752 552" zoomAndPan="magnify"><defs><filter id="f1cvax87pxhtv0" width="300%" height="300%" x="-1" y="-1"><feGaussianBlur result="blurOut" stdDeviation="2"/><feColorMatrix in="blurOut" result="blurOut2" type="matrix" values="0 0 0 0 0 0 0 0 0 0 0 0 0 0 0 0 0 0 .4 0"/><feOffset dx="4" dy="4" in="blurOut2" result="blurOut3"/><feBlend in="SourceGraphic" in2="blurOut3" mode="normal"/></filter></defs><g><ellipse cx="327.99" cy="29" fill="#000" filter="url(#f1cvax87pxhtv0)" rx="10" ry="10" style="stroke:none;stroke-width:1"/><rect style="stroke:#a80036;stroke-width:1.5" width="53" height="40" x="373.49" y="9" fill="#FEFECE" filter="url(#f1cvax87pxhtv0)" rx="12.5" ry="12.5"/><text x="378.49" y="33.847" fill="#000" font-family="sans-serif" font-size="14" lengthAdjust="spacingAndGlyphs" textLength="43">Ready</text><rect style="stroke:#a80036;stroke-width:1.5" width="86" height="42.594" x="33.99" y="142" fill="#FEFECE" filter="url(#f1cvax87pxhtv0)" rx="12.5" ry="12.5"/><text x="59.49" y="159.995" fill="#000" font-family="sans-serif" font-size="14" lengthAdjust="spacingAndGlyphs" textLength="35">Input</text><text x="38.99" y="176.292" fill="#000" font-family="sans-serif" font-size="14" lengthAdjust="spacingAndGlyphs" textLength="76">Registered</text><rect style="stroke:#a80036;stroke-width:1.5" width="90" height="42.594" x="126.99" y="401" fill="#FEFECE" filter="url(#f1cvax87pxhtv0)" rx="12.5" ry="12.5"/><text x="131.99" y="418.995" fill="#000" font-family="sans-serif" font-size="14" lengthAdjust="spacingAndGlyphs" textLength="80">Connection</text><text x="136.49" y="435.292" fill="#000" font-family="sans-serif" font-size="14" lengthAdjust="spacingAndGlyphs" textLength="71">Confirmed</text><polygon fill="#FEFECE" points="154.99 281 166.99 293 154.99 305 142.99 293 154.99 281" filter="url(#f1cvax87pxhtv0)" style="stroke:#a80036;stroke-width:1.5"/><ellipse cx="369.99" cy="531" fill="none" filter="url(#f1cvax87pxhtv0)" rx="10" ry="10" style="stroke:#000;stroke-width:1"/><ellipse cx="370.49" cy="531.5" fill="#000" rx="6" ry="6" style="stroke:none;stroke-width:1"/><path id="*start-ready" fill="none" d="M338.12,29 C348.13,29 358.15,29 368.17,29" style="stroke:#a80036;stroke-width:1"/><polygon fill="#A80036" points="373.41 29 364.41 25 368.41 29 364.41 33 373.41 29" style="stroke:#a80036;stroke-width:1"/><path id="ready-ready" fill="none" d="M431.5,17.01 C447.33,15.31 461.49,19.3 461.49,29 C461.49,39.7 444.25,43.46 426.54,40.28" style="stroke:#a80036;stroke-width:1"/><polygon fill="#A80036" points="426.54 17.72 436.019 20.395 431.489 17.007 434.877 12.477 426.54 17.72" style="stroke:#a80036;stroke-width:1"/><text x="484.49" y="26.067" fill="#000" font-family="sans-serif" font-size="13" lengthAdjust="spacingAndGlyphs" textLength="21">get</text><text x="467.49" y="41.2" fill="#000" font-family="sans-serif" font-size="13" lengthAdjust="spacingAndGlyphs" textLength="55">statuses</text><path id="ready-registered_input" fill="none" d="M373.45,43.46 C367.79,45.93 361.78,48.27 355.99,50 C272.82,74.86 240.8,41.51 162.99,80 C135.75,93.48 111.46,118.65 95.7,137.66" style="stroke:#a80036;stroke-width:1"/><polygon fill="#A80036" points="92.27 141.86 101.058 137.413 95.43 137.985 94.858 132.357 92.27 141.86" style="stroke:#a80036;stroke-width:1"/><text x="163.99" y="93.067" fill="#000" font-family="sans-serif" font-size="13" lengthAdjust="spacingAndGlyphs" textLength="49">register</text><text x="172.49" y="108.2" fill="#000" font-family="sans-serif" font-size="13" lengthAdjust="spacingAndGlyphs" textLength="32">input</text><path id="ready-c1" fill="none" d="M376.42,49.1 C365.06,58.36 351.26,69.69 338.99,80 C306.66,107.16 293.13,108.83 266.99,142 C234.51,183.22 246.52,206.63 212.99,247 C199.51,263.24 179.19,277.31 166.53,285.21" style="stroke:#a80036;stroke-width:1"/><polygon fill="#A80036" points="162.23 287.84 171.998 286.577 166.501 285.24 167.838 279.744 162.23 287.84" style="stroke:#a80036;stroke-width:1"/><text x="278.99" y="160.567" fill="#000" font-family="sans-serif" font-size="13" lengthAdjust="spacingAndGlyphs" textLength="48">confirm</text><text x="267.99" y="175.7" fill="#000" font-family="sans-serif" font-size="13" lengthAdjust="spacingAndGlyphs" textLength="70">connection</text><path id="registered_input-c1" fill="none" d="M48.4,185.16 C28.6,202.04 8.25,226.4 22.99,247 C49.79,284.44 109.61,291.09 138.61,292.03" style="stroke:#a80036;stroke-width:1"/><polygon fill="#A80036" points="143.65 292.15 134.744 287.945 138.651 292.036 134.561 295.943 143.65 292.15" style="stroke:#a80036;stroke-width:1"/><text x="34.99" y="228.067" fill="#000" font-family="sans-serif" font-size="13" lengthAdjust="spacingAndGlyphs" textLength="48">confirm</text><text x="23.99" y="243.2" fill="#000" font-family="sans-serif" font-size="13" lengthAdjust="spacingAndGlyphs" textLength="70">connection</text><path id="c1-registered_input" fill="none" d="M150.7,284.98 C139.81,267.19 110.73,219.65 92.52,189.89" style="stroke:#a80036;stroke-width:1"/><polygon fill="#A80036" points="89.7 185.27 91.001 195.032 92.317 189.531 97.818 190.846 89.7 185.27" style="stroke:#a80036;stroke-width:1"/><text x="138.49" y="228.067" fill="#000" font-family="sans-serif" font-size="13" lengthAdjust="spacingAndGlyphs" textLength="54">not_final</text><text x="126.99" y="243.2" fill="#000" font-family="sans-serif" font-size="13" lengthAdjust="spacingAndGlyphs" textLength="77">(zero creds)</text><path id="c1-confirmed_input" fill="none" d="M156.33,304 C158.94,323.57 164.79,367.44 168.55,395.69" style="stroke:#a80036;stroke-width:1"/><polygon fill="#A80036" points="169.23 400.78 172.013 391.332 168.573 395.823 164.082 392.384 169.23 400.78" style="stroke:#a80036;stroke-width:1"/><text x="189.49" y="352.067" fill="#000" font-family="sans-serif" font-size="13" lengthAdjust="spacingAndGlyphs" textLength="26">final</text><text x="165.99" y="367.2" fill="#000" font-family="sans-serif" font-size="13" lengthAdjust="spacingAndGlyphs" textLength="73">(real creds)</text><path id="ready-*end" fill="none" d="M392.7,49.15 C377.52,90.17 342.93,189.88 330.99,277 C329.06,291.09 329.75,294.83 330.99,309 C337.9,387.84 358.4,480.71 366.57,515.7" style="stroke:#a80036;stroke-width:1"/><polygon fill="#A80036" points="367.78 520.81 369.612 511.133 366.635 515.943 361.825 512.965 367.78 520.81" style="stroke:#a80036;stroke-width:1"/><text x="331.99" y="297.567" fill="#000" font-family="sans-serif" font-size="13" lengthAdjust="spacingAndGlyphs" textLength="60">signature</text><path id="ready-*end" fill="none" d="M408.71,49.31 C419.36,74.72 435.99,121.02 435.99,162.5 C435.99,162.5 435.99,162.5 435.99,423.5 C435.99,464.55 400.12,502.96 381.27,520.31" style="stroke:#a80036;stroke-width:1"/><polygon fill="#A80036" points="377.31 523.87 386.669 520.803 381.019 520.517 381.305 514.868 377.31 523.87" style="stroke:#a80036;stroke-width:1"/><text x="436.99" y="290.067" fill="#000" font-family="sans-serif" font-size="13" lengthAdjust="spacingAndGlyphs" textLength="65">deregister</text><text x="453.49" y="305.2" fill="#000" font-family="sans-serif" font-size="13" lengthAdjust="spacingAndGlyphs" textLength="32">input</text><path id="ready-*end" fill="none" d="M426.65,36.97 C475.17,51.45 572.99,89.67 572.99,162.5 C572.99,162.5 572.99,162.5 572.99,423.5 C572.99,508.38 432.09,525.75 385.07,529.18" style="stroke:#a80036;stroke-width:1"/><polygon fill="#A80036" points="380.06 529.52 389.313 532.893 385.048 529.177 388.764 524.912 380.06 529.52" style="stroke:#a80036;stroke-width:1"/><text x="573.99" y="290.067" fill="#000" font-family="sans-serif" font-size="13" lengthAdjust="spacingAndGlyphs" textLength="49">register</text><text x="577.49" y="305.2" fill="#000" font-family="sans-serif" font-size="13" lengthAdjust="spacingAndGlyphs" textLength="42">output</text><path id="ready-*end" fill="none" d="M426.6,29.94 C498.97,31.29 693.99,45.77 693.99,162.5 C693.99,162.5 693.99,162.5 693.99,423.5 C693.99,489.31 449.7,521.13 385.37,528.37" style="stroke:#a80036;stroke-width:1"/><polygon fill="#A80036" points="380.04 528.96 389.43 531.933 385.009 528.403 388.538 523.982 380.04 528.96" style="stroke:#a80036;stroke-width:1"/><text x="694.99" y="290.067" fill="#000" font-family="sans-serif" font-size="13" lengthAdjust="spacingAndGlyphs" textLength="46">reissue</text><text x="700.49" y="305.2" fill="#000" font-family="sans-serif" font-size="13" lengthAdjust="spacingAndGlyphs" textLength="35">creds</text><path id="confirmed_input-*end" fill="none" d="M180.48,444.23 C187.73,459.39 199.61,479.29 215.99,491 C259.51,522.1 325.47,528.46 354.9,529.72" style="stroke:#a80036;stroke-width:1"/><polygon fill="#A80036" points="359.95 529.9 351.105 525.569 354.953 529.714 350.808 533.563 359.95 529.9" style="stroke:#a80036;stroke-width:1"/><text x="216.99" y="487.067" fill="#000" font-family="sans-serif" font-size="13" lengthAdjust="spacingAndGlyphs" textLength="60">signature</text><path id="registered_input-*end" fill="none" d="M37.45,185.1 C26.53,192.9 16.04,202.88 9.99,215 C3.65,227.73 6.71,233.16 9.99,247 C32.6,342.35 41.82,372.66 108.99,444 C177.84,517.11 309.93,528.14 354.71,529.74" style="stroke:#a80036;stroke-width:1"/><polygon fill="#A80036" points="359.97 529.9 351.088 525.645 354.972 529.757 350.859 533.641 359.97 529.9" style="stroke:#a80036;stroke-width:1"/><text x="51.99" y="352.067" fill="#000" font-family="sans-serif" font-size="13" lengthAdjust="spacingAndGlyphs" textLength="65">deregister</text><text x="68.49" y="367.2" fill="#000" font-family="sans-serif" font-size="13" lengthAdjust="spacingAndGlyphs" textLength="32">input</text></g></svg>