<svg xmlns="http://www.w3.org/2000/svg" xmlns:xlink="http://www.w3.org/1999/xlink" width="936" height="1606" contentScriptType="application/ecmascript" contentStyleType="text/css" style="width:936px;height:1606px" preserveAspectRatio="none" version="1.1" viewBox="0 0 936 1606" zoomAndPan="magnify"><defs><filter id="f15qnl0mqnm3qg" width="300%" height="300%" x="-1" y="-1"><feGaussianBlur result="blurOut" stdDeviation="2"/><feColorMatrix in="blurOut" result="blurOut2" type="matrix" values="0 0 0 0 0 0 0 0 0 0 0 0 0 0 0 0 0 0 .4 0"/><feOffset dx="4" dy="4" in="blurOut2" result="blurOut3"/><feBlend in="SourceGraphic" in2="blurOut3" mode="normal"/></filter></defs><g><rect style="stroke:#a80036;stroke-width:1.5" width="132" height="40" x="220" y="89" fill="#FEFECE" filter="url(#f15qnl0mqnm3qg)" rx="12.5" ry="12.5"/><text x="225" y="113.847" fill="#000" font-family="sans-serif" font-size="14" lengthAdjust="spacingAndGlyphs" textLength="122">Input Registration</text><rect style="stroke:#000;stroke-width:1.5" width="155" height="46.297" x="208.5" y="190" fill="#FEFECE" filter="url(#f15qnl0mqnm3qg)"/><path fill="none" d="M260.1667,191 L260.1667,195 L253.1667,202 L208.5,202" style="stroke:#000;stroke-width:1.5"/><text x="223.5" y="222.995" fill="#000" font-family="sans-serif" font-size="14" lengthAdjust="spacingAndGlyphs" textLength="115">Input Registered</text><rect style="stroke:#a80036;stroke-width:1.5" width="181" height="40" x="368.5" y="398" fill="#FEFECE" filter="url(#f15qnl0mqnm3qg)" rx="12.5" ry="12.5"/><text x="373.5" y="422.847" fill="#000" font-family="sans-serif" font-size="14" lengthAdjust="spacingAndGlyphs" textLength="171">Connection Confirmation</text><rect style="stroke:#000;stroke-width:1.5" width="150" height="46.297" x="239" y="499" fill="#FEFECE" filter="url(#f15qnl0mqnm3qg)"/><path fill="none" d="M289,500 L289,504 L282,511 L239,511" style="stroke:#000;stroke-width:1.5"/><text x="254" y="531.995" fill="#000" font-family="sans-serif" font-size="14" lengthAdjust="spacingAndGlyphs" textLength="110">Input Confirmed</text><rect style="stroke:#a80036;stroke-width:1.5" width="145" height="40" x="373.5" y="723" fill="#FEFECE" filter="url(#f15qnl0mqnm3qg)" rx="12.5" ry="12.5"/><text x="378.5" y="747.847" fill="#000" font-family="sans-serif" font-size="14" lengthAdjust="spacingAndGlyphs" textLength="135">Output Registration</text><rect style="stroke:#000;stroke-width:1.5" width="168" height="46.297" x="208" y="824" fill="#FEFECE" filter="url(#f15qnl0mqnm3qg)"/><path fill="none" d="M264,825 L264,829 L257,836 L208,836" style="stroke:#000;stroke-width:1.5"/><text x="223" y="856.995" fill="#000" font-family="sans-serif" font-size="14" lengthAdjust="spacingAndGlyphs" textLength="128">Output Registered</text><rect style="stroke:#a80036;stroke-width:1.5" width="146" height="40" x="464" y="1048" fill="#FEFECE" filter="url(#f15qnl0mqnm3qg)" rx="12.5" ry="12.5"/><text x="469" y="1072.847" fill="#000" font-family="sans-serif" font-size="14" lengthAdjust="spacingAndGlyphs" textLength="136">Transaction Signing</text><path fill="#FBFB77" d="M59.5,1048 L59.5,1088.2656 A0,0 0 0 0 59.5,1088.2656 L428.5,1088.2656 A0,0 0 0 0 428.5,1088.2656 L428.5,1072 L463.7154,1068 L428.5,1064 L428.5,1058 L418.5,1048 L59.5,1048 A0,0 0 0 0 59.5,1048" filter="url(#f15qnl0mqnm3qg)" style="stroke:#a80036;stroke-width:1"/><path fill="#FBFB77" d="M418.5,1048 L418.5,1058 L428.5,1058 L418.5,1048" style="stroke:#a80036;stroke-width:1"/><text x="65.5" y="1065.067" fill="#000" font-family="sans-serif" font-size="13" lengthAdjust="spacingAndGlyphs" textLength="348">If signing times out a new MAC key must be generated</text><text x="65.5" y="1080.2" fill="#000" font-family="sans-serif" font-size="13" lengthAdjust="spacingAndGlyphs" textLength="301">and only signing inputs permitted to re-register</text><rect style="stroke:#000;stroke-width:1.5" width="127" height="46.297" x="479.5" y="1165" fill="#FEFECE" filter="url(#f15qnl0mqnm3qg)"/><path fill="none" d="M521.8333,1166 L521.8333,1170 L514.8333,1177 L479.5,1177" style="stroke:#000;stroke-width:1.5"/><text x="494.5" y="1197.995" fill="#000" font-family="sans-serif" font-size="14" lengthAdjust="spacingAndGlyphs" textLength="87">Input Signed</text><rect style="stroke:#a80036;stroke-width:1.5" width="165" height="40" x="351.5" y="1373" fill="#FEFECE" filter="url(#f15qnl0mqnm3qg)" rx="12.5" ry="12.5"/><text x="356.5" y="1397.847" fill="#000" font-family="sans-serif" font-size="14" lengthAdjust="spacingAndGlyphs" textLength="155">Transaction Broadcast</text><polygon fill="#FEFECE" points="434 297 446 309 434 321 422 309 434 297" filter="url(#f15qnl0mqnm3qg)" style="stroke:#a80036;stroke-width:1.5"/><polygon fill="#FEFECE" points="340 622 352 634 340 646 328 634 340 622" filter="url(#f15qnl0mqnm3qg)" style="stroke:#a80036;stroke-width:1.5"/><polygon fill="#FEFECE" points="446 947 458 959 446 971 434 959 446 947" filter="url(#f15qnl0mqnm3qg)" style="stroke:#a80036;stroke-width:1.5"/><polygon fill="#FEFECE" points="434 1272 446 1284 434 1296 422 1284 434 1272" filter="url(#f15qnl0mqnm3qg)" style="stroke:#a80036;stroke-width:1.5"/><polygon fill="#FEFECE" points="628 297 640 309 628 321 616 309 628 297" filter="url(#f15qnl0mqnm3qg)" style="stroke:#a80036;stroke-width:1.5"/><polygon fill="#FEFECE" points="648 622 660 634 648 646 636 634 648 622" filter="url(#f15qnl0mqnm3qg)" style="stroke:#a80036;stroke-width:1.5"/><polygon fill="#FEFECE" points="434 1482 446 1494 434 1506 422 1494 434 1482" filter="url(#f15qnl0mqnm3qg)" style="stroke:#a80036;stroke-width:1.5"/><path fill="#FBFB77" d="M96.5,1474 L96.5,1514.2656 A0,0 0 0 0 96.5,1514.2656 L387.5,1514.2656 A0,0 0 0 0 387.5,1514.2656 L387.5,1498 L421.6484,1494 L387.5,1490 L387.5,1484 L377.5,1474 L96.5,1474 A0,0 0 0 0 96.5,1474" filter="url(#f15qnl0mqnm3qg)" style="stroke:#a80036;stroke-width:1"/><path fill="#FBFB77" d="M377.5,1474 L377.5,1484 L387.5,1484 L377.5,1474" style="stroke:#a80036;stroke-width:1"/><text x="102.5" y="1491.067" fill="#000" font-family="sans-serif" font-size="13" lengthAdjust="spacingAndGlyphs" textLength="270">If broadcast fails, only inptus which weren&apos;t</text><text x="102.5" y="1506.2" fill="#000" font-family="sans-serif" font-size="13" lengthAdjust="spacingAndGlyphs" textLength="267">double spent are permitted to re-register</text><ellipse cx="286" cy="18" fill="#000" filter="url(#f15qnl0mqnm3qg)" rx="10" ry="10" style="stroke:none;stroke-width:1"/><ellipse cx="663" cy="1585" fill="none" filter="url(#f15qnl0mqnm3qg)" rx="10" ry="10" style="stroke:#000;stroke-width:1"/><ellipse cx="663.5" cy="1585.5" fill="#000" rx="6" ry="6" style="stroke:none;stroke-width:1"/><path id="*start-in" fill="none" d="M286,28.0863 C286,41.4526 286,65.4896 286,83.9036" style="stroke:#a80036;stroke-width:1"/><polygon fill="#A80036" points="286 88.935 290 79.935 286 83.935 282 79.935 286 88.935" style="stroke:#a80036;stroke-width:1"/><path id="in-regin" fill="none" d="M286,129.0522 C286,144.7789 286,166.8709 286,184.4445" style="stroke:#a80036;stroke-width:1"/><polygon fill="#A80036" points="286 189.741 290 180.741 286 184.741 282 180.741 286 189.741" style="stroke:#a80036;stroke-width:1"/><path id="regin-c1" fill="none" d="M321.8267,236.2389 C354.4355,257.3906 400.6628,287.3759 422.1581,301.3188" style="stroke:#a80036;stroke-width:1"/><polygon fill="#A80036" points="426.594 304.196 421.22 295.943 422.399 301.475 416.867 302.654 426.594 304.196" style="stroke:#a80036;stroke-width:1"/><path id="in-c5" fill="none" d="M352.0482,118.6661 C406.2588,129.1485 482.9474,150.0475 539,190 C579.4032,218.7981 609.3302,271.488 621.7188,295.9192" style="stroke:#a80036;stroke-width:1"/><polygon fill="#A80036" points="624.094 300.685 623.659 290.846 621.864 296.21 616.499 294.414 624.094 300.685" style="stroke:#a80036;stroke-width:1"/><text x="584" y="217.567" fill="#000" font-family="sans-serif" font-size="13" lengthAdjust="spacingAndGlyphs" textLength="50">timeout</text><path id="c5-conf" fill="none" d="M623.3703,316.9332 C615.7603,329.3604 599.4905,353.4931 580,368 C564.7501,379.3506 546.5495,388.6215 528.9539,395.9599" style="stroke:#a80036;stroke-width:1"/><polygon fill="#A80036" points="524.01 397.979 533.854 398.279 528.639 396.089 530.83 390.873 524.01 397.979" style="stroke:#a80036;stroke-width:1"/><text x="599" y="364.067" fill="#000" font-family="sans-serif" font-size="13" lengthAdjust="spacingAndGlyphs" textLength="129">[registered &gt;= min]</text><path id="c5-*end" fill="none" d="M638.8057,310.3285 C677.235,315.7108 805,339.5074 805,418 C805,418 805,418 805,1494 C805,1553.7233 714.8562,1576.0454 678.2133,1582.652" style="stroke:#a80036;stroke-width:1"/><polygon fill="#A80036" points="673.212 1583.515 682.762 1585.926 678.139 1582.665 681.401 1578.043 673.212 1583.515" style="stroke:#a80036;stroke-width:1"/><text x="806" y="963.567" fill="#000" font-family="sans-serif" font-size="13" lengthAdjust="spacingAndGlyphs" textLength="118">[registered &lt; min]</text><path id="c1-in" fill="none" d="M431.3888,299.6092 C425.1966,278.4822 408.081,226.2295 381,190 C364.2308,167.5658 340.1841,147.1408 320.4802,132.4132" style="stroke:#a80036;stroke-width:1"/><polygon fill="#A80036" points="316.089 129.171 320.953 137.735 320.111 132.141 325.705 131.299 316.089 129.171" style="stroke:#a80036;stroke-width:1"/><text x="408" y="217.567" fill="#000" font-family="sans-serif" font-size="13" lengthAdjust="spacingAndGlyphs" textLength="122">[registered &lt; max]</text><path id="c1-conf" fill="none" d="M434.5854,320.4444 C435.3774,332.4301 437.1608,351.7369 441,368 C442.966,376.3281 445.8702,385.1849 448.7747,393.094" style="stroke:#a80036;stroke-width:1"/><polygon fill="#A80036" points="450.575 397.883 451.152 388.051 448.815 393.202 443.664 390.866 450.575 397.883" style="stroke:#a80036;stroke-width:1"/><text x="442" y="364.067" fill="#000" font-family="sans-serif" font-size="13" lengthAdjust="spacingAndGlyphs" textLength="133">[registered == max]</text><path id="conf-c6" fill="none" d="M487.1238,438.153 C507.5153,453.5247 535.071,475.9226 556,499 C593.1543,539.9682 627.0862,596.853 641.1473,621.6361" style="stroke:#a80036;stroke-width:1"/><polygon fill="#A80036" points="643.69 626.15 642.759 616.346 641.236 621.794 635.788 620.271 643.69 626.15" style="stroke:#a80036;stroke-width:1"/><text x="592" y="526.567" fill="#000" font-family="sans-serif" font-size="13" lengthAdjust="spacingAndGlyphs" textLength="50">timeout</text><path id="c6-*end" fill="none" d="M650.2782,643.8566 C654.4744,662.9018 663,706.1332 663,743 C663,743 663,743 663,1494 C663,1520.6305 663,1551.6448 663,1569.7241" style="stroke:#a80036;stroke-width:1"/><polygon fill="#A80036" points="663 1574.9 667 1565.9 663 1569.9 659 1565.9 663 1574.9" style="stroke:#a80036;stroke-width:1"/><text x="664" y="1131.067" fill="#000" font-family="sans-serif" font-size="13" lengthAdjust="spacingAndGlyphs" textLength="117">[confirmed &lt; min]</text><path id="c6-out" fill="none" d="M636.9205,635.2492 C611.9848,638.4771 550.2577,648.8271 507,676 C489.4958,686.9955 473.8892,704.3562 462.8441,718.6505" style="stroke:#a80036;stroke-width:1"/><polygon fill="#A80036" points="459.566 722.978 468.189 718.22 462.585 718.992 461.812 713.389 459.566 722.978" style="stroke:#a80036;stroke-width:1"/><text x="508" y="689.067" fill="#000" font-family="sans-serif" font-size="13" lengthAdjust="spacingAndGlyphs" textLength="128">[confirmed &gt;= min]</text><path id="conf-confin" fill="none" d="M431.0425,438.0522 C408.093,454.5126 375.4215,477.946 350.4265,495.8734" style="stroke:#a80036;stroke-width:1"/><polygon fill="#A80036" points="346.169 498.927 355.814 496.932 350.232 496.013 351.151 490.431 346.169 498.927" style="stroke:#a80036;stroke-width:1"/><path id="confin-c2" fill="none" d="M319.3872,545.2065 C324.5537,567.4619 332.1969,600.3867 336.5787,619.2619" style="stroke:#a80036;stroke-width:1"/><polygon fill="#A80036" points="337.723 624.193 339.584 614.521 336.593 619.322 331.792 616.33 337.723 624.193" style="stroke:#a80036;stroke-width:1"/><path id="c2-conf" fill="none" d="M345.7307,627.4643 C357.9922,613.2457 387.1834,578.1155 406,545 C425.1432,511.3098 441.3033,469.3329 450.5765,443.0919" style="stroke:#a80036;stroke-width:1"/><polygon fill="#A80036" points="452.338 438.061 445.589 445.233 450.686 442.78 453.139 447.877 452.338 438.061" style="stroke:#a80036;stroke-width:1"/><text x="430" y="526.567" fill="#000" font-family="sans-serif" font-size="13" lengthAdjust="spacingAndGlyphs" textLength="117">[unconfirmed &gt; 0]</text><path id="c2-out" fill="none" d="M336.589,642.8144 C332.4437,655.112 327.1429,677.6336 337,693 C344.709,705.0176 356.1098,714.1847 368.6712,721.166" style="stroke:#a80036;stroke-width:1"/><polygon fill="#A80036" points="373.347 723.64 367.263 715.895 368.928 721.302 363.521 722.966 373.347 723.64" style="stroke:#a80036;stroke-width:1"/><text x="338" y="689.067" fill="#000" font-family="sans-serif" font-size="13" lengthAdjust="spacingAndGlyphs" textLength="128">[unconfirmed == 0]</text><path id="out-regout" fill="none" d="M416.3073,763.0522 C391.8326,779.5806 356.9469,803.1398 330.3588,821.0954" style="stroke:#a80036;stroke-width:1"/><polygon fill="#A80036" points="326.166 823.927 335.863 822.205 330.309 821.129 331.385 815.575 326.166 823.927" style="stroke:#a80036;stroke-width:1"/><path id="regout-c3" fill="none" d="M323.9089,870.2065 C358.4334,895.3152 411.631,934.0044 434.693,950.7767" style="stroke:#a80036;stroke-width:1"/><polygon fill="#A80036" points="438.889 953.828 433.963 945.3 434.845 950.888 429.258 951.77 438.889 953.828" style="stroke:#a80036;stroke-width:1"/><path id="c3-sign" fill="none" d="M446.7264,970.4471 C448.0366,983.1378 451.7091,1003.7005 462,1018 C469.6664,1028.6526 480.3591,1037.6918 491.2724,1045.0314" style="stroke:#a80036;stroke-width:1"/><polygon fill="#A80036" points="495.623 1047.864 490.263 1039.602 491.433 1045.136 485.899 1046.306 495.623 1047.864" style="stroke:#a80036;stroke-width:1"/><text x="463" y="1014.067" fill="#000" font-family="sans-serif" font-size="13" lengthAdjust="spacingAndGlyphs" textLength="98">[balance == 0]</text><path id="c3-out" fill="none" d="M446,946.8431 C446,912.6575 446,815.1444 446,768.4826" style="stroke:#a80036;stroke-width:1"/><polygon fill="#A80036" points="446 763.321 442 772.321 446 768.321 450 772.321 446 763.321" style="stroke:#a80036;stroke-width:1"/><text x="447" y="851.567" fill="#000" font-family="sans-serif" font-size="13" lengthAdjust="spacingAndGlyphs" textLength="87">[balance &gt; 0]</text><path id="out-sign" fill="none" d="M481.4517,763.0964 C502.9369,777.245 528.8503,798.2299 543,824 C584.789,900.1081 588.5555,934.1548 566,1018 C563.6685,1026.6669 559.4265,1035.3808 554.8934,1043.0509" style="stroke:#a80036;stroke-width:1"/><polygon fill="#A80036" points="552.048 1047.682 560.168 1042.108 554.665 1043.422 553.351 1037.92 552.048 1047.682" style="stroke:#a80036;stroke-width:1"/><text x="579" y="913.067" fill="#000" font-family="sans-serif" font-size="13" lengthAdjust="spacingAndGlyphs" textLength="50">timeout</text><path id="sign-sig" fill="none" d="M538.0043,1088.0853 C538.9864,1107.7278 540.4908,1137.8155 541.5921,1159.8422" style="stroke:#a80036;stroke-width:1"/><polygon fill="#A80036" points="541.849 1164.975 545.394 1155.786 541.599 1159.981 537.404 1156.186 541.849 1164.975" style="stroke:#a80036;stroke-width:1"/><path id="sig-c4" fill="none" d="M516.6141,1211.2389 C493.3808,1231.7013 460.7607,1260.4309 444.3262,1274.9054" style="stroke:#a80036;stroke-width:1"/><polygon fill="#A80036" points="440.512 1278.264 449.91 1275.318 444.264 1274.96 444.622 1269.314 440.512 1278.264" style="stroke:#a80036;stroke-width:1"/><path id="c4-sign" fill="none" d="M426.9563,1279.0053 C404.7587,1262.6362 339.2235,1209.1297 365,1165 C386.1815,1128.737 426.4757,1104.9681 462.7411,1090.0394" style="stroke:#a80036;stroke-width:1"/><polygon fill="#A80036" points="467.599 1088.082 457.757 1087.736 462.962 1089.95 460.747 1095.156 467.599 1088.082" style="stroke:#a80036;stroke-width:1"/><text x="366" y="1192.567" fill="#000" font-family="sans-serif" font-size="13" lengthAdjust="spacingAndGlyphs" textLength="95">[unsigned &gt; 0]</text><path id="c4-bcast" fill="none" d="M434,1296.0814 C434,1313.2205 434,1345.0071 434,1367.4979" style="stroke:#a80036;stroke-width:1"/><polygon fill="#A80036" points="434 1372.716 438 1363.716 434 1367.716 430 1363.716 434 1372.716" style="stroke:#a80036;stroke-width:1"/><text x="435" y="1339.067" fill="#000" font-family="sans-serif" font-size="13" lengthAdjust="spacingAndGlyphs" textLength="106">[unsigned == 0]</text><path id="sign-in" fill="none" d="M463.7985,1050.8559 C352.8784,1024.3663 155,974.8838 155,959 C155,213 155,213 155,213 C155,174.3705 190.3731,147.8053 224.3569,131.1971" style="stroke:#a80036;stroke-width:1"/><polygon fill="#A80036" points="228.923 129.02 219.077 129.283 224.409 131.172 222.52 136.504 228.923 129.02" style="stroke:#a80036;stroke-width:1"/><text x="156" y="588.067" fill="#000" font-family="sans-serif" font-size="13" lengthAdjust="spacingAndGlyphs" textLength="50">timeout</text><path id="bcast-c7" fill="none" d="M434,1413.4389 C434,1432.0355 434,1459.1832 434,1476.7216" style="stroke:#a80036;stroke-width:1"/><polygon fill="#A80036" points="434 1481.836 438 1472.836 434 1476.836 430 1472.836 434 1481.836" style="stroke:#a80036;stroke-width:1"/><path id="c7-*end" fill="none" d="M442.6974,1497.4562 C477.2406,1511.1829 604.9683,1561.9394 648.419,1579.2058" style="stroke:#a80036;stroke-width:1"/><polygon fill="#A80036" points="653.288 1581.141 646.402 1574.1 648.642 1579.294 643.447 1581.534 653.288 1581.141" style="stroke:#a80036;stroke-width:1"/><path id="in-c7" fill="none" d="M214.5977,120.9828 C131.6405,136.976 6,168.5374 6,213 C6,213 6,213 6,1393 C6,1483.4753 321.738,1438.5992 405,1474 C413.3299,1477.5417 421.721,1483.6729 427.3184,1488.2157" style="stroke:#a80036;stroke-width:1"/><polygon fill="#A80036" points="219.999 119.952 210.408 117.71 215.087 120.889 211.908 125.569 219.999 119.952" style="stroke:#a80036;stroke-width:1"/></g></svg>