<svg xmlns="http://www.w3.org/2000/svg" xmlns:xlink="http://www.w3.org/1999/xlink" width="803" height="920" contentScriptType="application/ecmascript" contentStyleType="text/css" style="width:803px;height:920px" preserveAspectRatio="none" version="1.1" viewBox="0 0 803 920" zoomAndPan="magnify"><defs><filter id="f17zqho4or7e3j" width="300%" height="300%" x="-1" y="-1"><feGaussianBlur result="blurOut" stdDeviation="2"/><feColorMatrix in="blurOut" result="blurOut2" type="matrix" values="0 0 0 0 0 0 0 0 0 0 0 0 0 0 0 0 0 0 .4 0"/><feOffset dx="4" dy="4" in="blurOut2" result="blurOut3"/><feBlend in="SourceGraphic" in2="blurOut3" mode="normal"/></filter></defs><g><rect style="stroke:#a80036;stroke-width:1.5" width="396" height="539" x="14" y="16" fill="#FEFECE" filter="url(#f17zqho4or7e3j)" rx="12.5" ry="12.5"/><rect style="stroke:#fff;stroke-width:1" width="390" height="506.703" x="17" y="45.297" fill="#FFF" rx="12.5" ry="12.5"/><line style="stroke:#a80036;stroke-width:1.5" x1="14" x2="410" y1="42.297" y2="42.297"/><text x="151.5" y="32.995" fill="#000" font-family="sans-serif" font-size="14" lengthAdjust="spacingAndGlyphs" textLength="121">Coordinator State</text><rect style="stroke:#a80036;stroke-width:1.5" width="86" height="40" x="298" y="43" fill="#FEFECE" filter="url(#f17zqho4or7e3j)" rx="12.5" ry="12.5"/><text x="303" y="67.847" fill="#000" font-family="sans-serif" font-size="14" lengthAdjust="spacingAndGlyphs" textLength="76">Registered</text><rect style="stroke:#a80036;stroke-width:1.5" width="81" height="40" x="283.5" y="143" fill="#FEFECE" filter="url(#f17zqho4or7e3j)" rx="12.5" ry="12.5"/><text x="288.5" y="167.847" fill="#000" font-family="sans-serif" font-size="14" lengthAdjust="spacingAndGlyphs" textLength="71">Confirmed</text><rect style="stroke:#a80036;stroke-width:1.5" width="58" height="40" x="344" y="319" fill="#FEFECE" filter="url(#f17zqho4or7e3j)" rx="12.5" ry="12.5"/><text x="349" y="343.847" fill="#000" font-family="sans-serif" font-size="14" lengthAdjust="spacingAndGlyphs" textLength="48">Signed</text><polygon fill="#FEFECE" points="297 327 309 339 297 351 285 339 297 327" filter="url(#f17zqho4or7e3j)" style="stroke:#a80036;stroke-width:1.5"/><rect style="stroke:#a80036;stroke-width:1.5" width="64" height="40" x="249" y="507" fill="#FEFECE" filter="url(#f17zqho4or7e3j)" rx="12.5" ry="12.5"/><text x="254" y="531.847" fill="#000" font-family="sans-serif" font-size="14" lengthAdjust="spacingAndGlyphs" textLength="54">Banned</text><path fill="#FBFB77" d="M22,243 L22,434.5938 A0,0 0 0 0 22,434.5938 L250,434.5938 A0,0 0 0 0 250,434.5938 L250,343 L284.9206,339 L250,335 L250,253 L240,243 L22,243 A0,0 0 0 0 22,243" filter="url(#f17zqho4or7e3j)" style="stroke:#a80036;stroke-width:1"/><path fill="#FBFB77" d="M240,243 L240,253 L250,253 L240,243" style="stroke:#a80036;stroke-width:1"/><text x="28" y="260.067" fill="#000" font-family="sans-serif" font-size="13" lengthAdjust="spacingAndGlyphs" textLength="139">DoS prevention policy</text><text x="28" y="290.332" fill="#000" font-family="sans-serif" font-size="13" lengthAdjust="spacingAndGlyphs" textLength="185">De-registration and timeouts</text><text x="28" y="305.465" fill="#000" font-family="sans-serif" font-size="13" lengthAdjust="spacingAndGlyphs" textLength="136">follow this path, since</text><text x="28" y="320.598" fill="#000" font-family="sans-serif" font-size="13" lengthAdjust="spacingAndGlyphs" textLength="188">repeated de-registration may</text><text x="28" y="335.731" fill="#000" font-family="sans-serif" font-size="13" lengthAdjust="spacingAndGlyphs" textLength="138">suggest a DoS attack</text><text x="28" y="365.997" fill="#000" font-family="sans-serif" font-size="13" lengthAdjust="spacingAndGlyphs" textLength="182">Repeated non-signing inputs</text><text x="28" y="381.129" fill="#000" font-family="sans-serif" font-size="13" lengthAdjust="spacingAndGlyphs" textLength="207">strongly suggests DoS attempts</text><text x="28" y="396.262" fill="#000" font-family="sans-serif" font-size="13" lengthAdjust="spacingAndGlyphs" textLength="175">but there&apos;s always plausible</text><text x="28" y="411.395" fill="#000" font-family="sans-serif" font-size="13" lengthAdjust="spacingAndGlyphs" textLength="189">deniability due to connectivity</text><text x="28" y="426.528" fill="#000" font-family="sans-serif" font-size="13" lengthAdjust="spacingAndGlyphs" textLength="191">issues, so bans should expire.</text><rect style="stroke:#a80036;stroke-width:1.5" width="92" height="64.234" x="508" y="307" fill="#FEFECE" filter="url(#f17zqho4or7e3j)" rx="12.5" ry="12.5"/><line style="stroke:#a80036;stroke-width:1.5" x1="508" x2="600" y1="333.297" y2="333.297"/><text x="526.5" y="324.995" fill="#000" font-family="sans-serif" font-size="14" lengthAdjust="spacingAndGlyphs" textLength="55">Created</text><text x="513" y="349.435" fill="#000" font-family="sans-serif" font-size="12" lengthAdjust="spacingAndGlyphs" textLength="62">funding tx</text><text x="513" y="363.404" fill="#000" font-family="sans-serif" font-size="12" lengthAdjust="spacingAndGlyphs" textLength="72">in mempool</text><path fill="#FBFB77" d="M635,251 L635,335 L600.2715,339 L635,343 L635,427.4609 A0,0 0 0 0 635,427.4609 L791,427.4609 A0,0 0 0 0 791,427.4609 L791,261 L781,251 L635,251 A0,0 0 0 0 635,251" filter="url(#f17zqho4or7e3j)" style="stroke:#a80036;stroke-width:1"/><path fill="#FBFB77" d="M781,251 L781,261 L791,261 L781,251" style="stroke:#a80036;stroke-width:1"/><text x="641" y="268.067" fill="#000" font-family="sans-serif" font-size="13" lengthAdjust="spacingAndGlyphs" textLength="122">A child of a banned</text><text x="641" y="283.2" fill="#000" font-family="sans-serif" font-size="13" lengthAdjust="spacingAndGlyphs" textLength="113">input may start in</text><text x="641" y="298.332" fill="#000" font-family="sans-serif" font-size="13" lengthAdjust="spacingAndGlyphs" textLength="122">the banned stated.</text><text x="641" y="328.598" fill="#000" font-family="sans-serif" font-size="13" lengthAdjust="spacingAndGlyphs" textLength="115">For simplicity, and</text><text x="641" y="343.731" fill="#000" font-family="sans-serif" font-size="13" lengthAdjust="spacingAndGlyphs" textLength="125">because destroying</text><text x="641" y="358.864" fill="#000" font-family="sans-serif" font-size="13" lengthAdjust="spacingAndGlyphs" textLength="131">UTXOs incurs a cost,</text><text x="641" y="373.997" fill="#000" font-family="sans-serif" font-size="13" lengthAdjust="spacingAndGlyphs" textLength="119">we illustrate a DoS</text><text x="641" y="389.129" fill="#000" font-family="sans-serif" font-size="13" lengthAdjust="spacingAndGlyphs" textLength="117">policy that doesn&apos;t</text><text x="641" y="404.262" fill="#000" font-family="sans-serif" font-size="13" lengthAdjust="spacingAndGlyphs" textLength="135">take provenance into</text><text x="641" y="419.395" fill="#000" font-family="sans-serif" font-size="13" lengthAdjust="spacingAndGlyphs" textLength="55">account.</text><rect style="stroke:#a80036;stroke-width:1.5" width="82" height="64.234" x="419" y="495" fill="#FEFECE" filter="url(#f17zqho4or7e3j)" rx="12.5" ry="12.5"/><line style="stroke:#a80036;stroke-width:1.5" x1="419" x2="501" y1="521.297" y2="521.297"/><text x="439" y="512.995" fill="#000" font-family="sans-serif" font-size="14" lengthAdjust="spacingAndGlyphs" textLength="42">Mined</text><text x="424" y="537.436" fill="#000" font-family="sans-serif" font-size="12" lengthAdjust="spacingAndGlyphs" textLength="62">funding tx</text><text x="424" y="551.404" fill="#000" font-family="sans-serif" font-size="12" lengthAdjust="spacingAndGlyphs" textLength="62">confirmed</text><rect style="stroke:#a80036;stroke-width:1.5" width="93" height="64.234" x="407.5" y="754" fill="#FEFECE" filter="url(#f17zqho4or7e3j)" rx="12.5" ry="12.5"/><line style="stroke:#a80036;stroke-width:1.5" x1="407.5" x2="500.5" y1="780.297" y2="780.297"/><text x="418" y="771.995" fill="#000" font-family="sans-serif" font-size="14" lengthAdjust="spacingAndGlyphs" textLength="72">Destroyed</text><text x="412.5" y="796.436" fill="#000" font-family="sans-serif" font-size="12" lengthAdjust="spacingAndGlyphs" textLength="73">spending tx</text><text x="412.5" y="810.404" fill="#000" font-family="sans-serif" font-size="12" lengthAdjust="spacingAndGlyphs" textLength="62">confirmed</text><path fill="#FBFB77" d="M195.5,743 L195.5,828.6641 A0,0 0 0 0 195.5,828.6641 L372.5,828.6641 A0,0 0 0 0 372.5,828.6641 L372.5,790 L407.2887,786 L372.5,782 L372.5,753 L362.5,743 L195.5,743 A0,0 0 0 0 195.5,743" filter="url(#f17zqho4or7e3j)" style="stroke:#a80036;stroke-width:1"/><path fill="#FBFB77" d="M362.5,743 L362.5,753 L372.5,753 L362.5,743" style="stroke:#a80036;stroke-width:1"/><text x="201.5" y="760.067" fill="#000" font-family="sans-serif" font-size="13" lengthAdjust="spacingAndGlyphs" textLength="128">For simplicity reorgs</text><text x="201.5" y="775.2" fill="#000" font-family="sans-serif" font-size="13" lengthAdjust="spacingAndGlyphs" textLength="138">are not shown, so the</text><text x="201.5" y="790.332" fill="#000" font-family="sans-serif" font-size="13" lengthAdjust="spacingAndGlyphs" textLength="136">mined and destroyed</text><text x="201.5" y="805.465" fill="#000" font-family="sans-serif" font-size="13" lengthAdjust="spacingAndGlyphs" textLength="156">states assume sufficient</text><text x="201.5" y="820.598" fill="#000" font-family="sans-serif" font-size="13" lengthAdjust="spacingAndGlyphs" textLength="125">confirmation depth.</text><rect style="stroke:#a80036;stroke-width:1.5" width="93" height="64.234" x="407.5" y="619" fill="#FEFECE" filter="url(#f17zqho4or7e3j)" rx="12.5" ry="12.5"/><line style="stroke:#a80036;stroke-width:1.5" x1="407.5" x2="500.5" y1="645.297" y2="645.297"/><text x="433.5" y="636.995" fill="#000" font-family="sans-serif" font-size="14" lengthAdjust="spacingAndGlyphs" textLength="41">Spent</text><text x="412.5" y="661.436" fill="#000" font-family="sans-serif" font-size="12" lengthAdjust="spacingAndGlyphs" textLength="73">spending tx</text><text x="412.5" y="675.404" fill="#000" font-family="sans-serif" font-size="12" lengthAdjust="spacingAndGlyphs" textLength="72">in mempool</text><ellipse cx="554" cy="163" fill="#000" filter="url(#f17zqho4or7e3j)" rx="10" ry="10" style="stroke:none;stroke-width:1"/><ellipse cx="504" cy="899" fill="none" filter="url(#f17zqho4or7e3j)" rx="10" ry="10" style="stroke:#000;stroke-width:1"/><ellipse cx="504.5" cy="899.5" fill="#000" rx="6" ry="6" style="stroke:none;stroke-width:1"/><path id="ireg-cconf" fill="none" d="M337.5598,83.2365 C334.8869,98.9595 331.1644,120.8563 328.2958,137.7304" style="stroke:#a80036;stroke-width:1"/><polygon fill="#A80036" points="327.435 142.794 332.887 134.591 328.273 137.864 325 133.25 327.435 142.794" style="stroke:#a80036;stroke-width:1"/><path id="cconf-signed" fill="none" d="M329.6209,183.1894 C338.6058,215.4618 356.1861,278.6072 365.9824,313.794" style="stroke:#a80036;stroke-width:1"/><polygon fill="#A80036" points="367.369 318.776 368.809 309.033 366.028 313.959 361.102 311.178 367.369 318.776" style="stroke:#a80036;stroke-width:1"/><path id="cconf-nc" fill="none" d="M320.9028,183.1894 C315.4556,218.6968 304.2751,291.5768 299.3819,323.4734" style="stroke:#a80036;stroke-width:1"/><polygon fill="#A80036" points="298.598 328.583 303.917 320.293 299.356 323.64 296.009 319.08 298.598 328.583" style="stroke:#a80036;stroke-width:1"/><path id="signed-ireg" fill="none" d="M377.5719,318.8966 C384.9358,282.9978 397.143,205.7492 382,143 C377.2553,123.3391 366.8076,103.0828 357.6467,87.8722" style="stroke:#a80036;stroke-width:1"/><polygon fill="#A80036" points="354.853 83.32 356.151 93.083 357.468 87.581 362.97 88.898 354.853 83.32" style="stroke:#a80036;stroke-width:1"/><path id="ireg-nc" fill="none" d="M313.666,83.0655 C296.3964,97.5396 275.5913,118.7456 266,143 C252.7843,176.4196 281.699,285.5463 292.8515,324.7851" style="stroke:#a80036;stroke-width:1"/><polygon fill="#A80036" points="294.241 329.635 295.607 319.881 292.864 324.828 287.917 322.084 294.241 329.635" style="stroke:#a80036;stroke-width:1"/><path id="mined-ireg" fill="none" d="M459.6682,494.9023 C457.8775,427.0159 447.8025,265.0999 394,143 C385.2189,123.072 371.5877,102.6379 360.3484,87.4098" style="stroke:#a80036;stroke-width:1"/><polygon fill="#A80036" points="357.248 83.257 359.427 92.862 360.239 87.264 365.838 88.076 357.248 83.257" style="stroke:#a80036;stroke-width:1"/><path id="signed-spent" fill="none" d="M372.9393,359.0046 C373.3804,398.3677 377.176,488.2063 401,559 C407.5025,578.3225 418.2792,598.1212 428.423,614.3781" style="stroke:#a80036;stroke-width:1"/><polygon fill="#A80036" points="431.263 618.866 429.83 609.122 428.589 614.641 423.07 613.4 431.263 618.866" style="stroke:#a80036;stroke-width:1"/><path id="signed-mined" fill="none" d="M382.3105,359.1193 C396.7587,390.3406 424.8007,450.9371 442.9468,490.1493" style="stroke:#a80036;stroke-width:1"/><polygon fill="#A80036" points="445.109 494.822 444.959 484.974 443.009 490.284 437.699 488.334 445.109 494.822" style="stroke:#a80036;stroke-width:1"/><path id="nc-banned" fill="none" d="M296.047,350.1972 C293.5309,379.7618 286.6617,460.4751 283.1416,501.8358" style="stroke:#a80036;stroke-width:1"/><polygon fill="#A80036" points="282.709 506.92 287.458 498.291 283.133 501.938 279.487 497.613 282.709 506.92" style="stroke:#a80036;stroke-width:1"/><path id="nc-mined" fill="none" d="M297.9389,350.1462 C300.0385,369.2325 306.5712,408.6582 326,435 C353.321,472.0421 374.2628,468.1774 414.3687,494.6444" style="stroke:#a80036;stroke-width:1"/><polygon fill="#A80036" points="418.83 497.662 413.616 489.306 414.689 494.861 409.134 495.933 418.83 497.662" style="stroke:#a80036;stroke-width:1"/><path id="banned-mined" fill="none" d="M313.1641,527 C346.6478,527 380.1315,527 413.6152,527" style="stroke:#a80036;stroke-width:1"/><polygon fill="#A80036" points="418.989 527 409.989 523 413.989 527 409.989 531 418.989 527" style="stroke:#a80036;stroke-width:1"/><path id="banned-destroyed" fill="none" d="M294.575,547.3233 C323.7647,591.0234 392.8388,694.435 429.7516,749.6975" style="stroke:#a80036;stroke-width:1"/><polygon fill="#A80036" points="432.57 753.917 430.897 744.211 429.793 749.759 424.245 748.654 432.57 753.917" style="stroke:#a80036;stroke-width:1"/><path id="*start-created" fill="none" d="M554,173.2232 C554,197.6571 554,260.448 554,301.3562" style="stroke:#a80036;stroke-width:1"/><polygon fill="#A80036" points="554 306.728 558 297.728 554 301.728 550 297.728 554 306.728" style="stroke:#a80036;stroke-width:1"/><path id="created-mined" fill="none" d="M537.8408,371.3184 C521.313,404.3741 495.6751,455.6498 478.3825,490.235" style="stroke:#a80036;stroke-width:1"/><polygon fill="#A80036" points="476.105 494.789 483.708 488.528 478.341 490.317 476.552 484.951 476.105 494.789" style="stroke:#a80036;stroke-width:1"/><path id="mined-spent" fill="none" d="M447.0949,559.2558 C444.5858,575.9039 443.4437,596.3018 443.9982,613.633" style="stroke:#a80036;stroke-width:1"/><polygon fill="#A80036" points="444.225 618.906 447.834 609.742 444.01 613.91 439.842 610.086 444.225 618.906" style="stroke:#a80036;stroke-width:1"/><path id="spent-mined" fill="none" d="M467.5471,618.9057 C470.1657,602.2819 471.3275,581.8863 470.7026,564.5353" style="stroke:#a80036;stroke-width:1"/><polygon fill="#A80036" points="470.451 559.256 466.884 568.436 470.689 564.25 474.875 568.055 470.451 559.256" style="stroke:#a80036;stroke-width:1"/><path id="spent-destroyed" fill="none" d="M454,683.3359 C454,703.0394 454,728.2892 454,748.817" style="stroke:#a80036;stroke-width:1"/><polygon fill="#A80036" points="454 753.928 458 744.928 454 748.928 450 744.928 454 753.928" style="stroke:#a80036;stroke-width:1"/><path id="created-*end" fill="none" d="M553.0146,371.249 C550.3126,449.8466 541.3681,657.4276 518,829 C515.4013,848.0802 510.7999,869.7853 507.5841,883.9006" style="stroke:#a80036;stroke-width:1"/><polygon fill="#A80036" points="506.385 889.097 512.307 881.227 507.509 884.225 504.512 879.428 506.385 889.097" style="stroke:#a80036;stroke-width:1"/><path id="destroyed-*end" fill="none" d="M468.1943,818.079 C477.9275,840.0762 490.3668,868.189 497.7287,884.8268" style="stroke:#a80036;stroke-width:1"/><polygon fill="#A80036" points="499.842 889.602 499.858 879.754 497.818 885.03 492.542 882.991 499.842 889.602" style="stroke:#a80036;stroke-width:1"/></g></svg>